<?xml version="1.0" standalone="no"?>
<!DOCTYPE svg PUBLIC "-//W3C//DTD SVG 20010904//EN"
 "http://www.w3.org/TR/2001/REC-SVG-20010904/DTD/svg10.dtd">
<svg version="1.0" xmlns="http://www.w3.org/2000/svg"
 width="360.000000pt" height="360.000000pt" viewBox="0 0 360.000000 360.000000"
 preserveAspectRatio="xMidYMid meet">

<g transform="translate(0.000000,360.000000) scale(0.100000,-0.100000)"
fill="#000000" stroke="none">
<path d="M1600 3586 c-147 -20 -248 -42 -370 -83 -547 -183 -996 -650 -1155
-1204 -50 -173 -69 -315 -69 -509 1 -278 56 -522 174 -766 271 -562 795 -938
1414 -1015 150 -18 420 -7 572 25 235 49 476 154 674 293 123 86 345 309 432
433 141 200 250 453 298 696 28 137 38 410 20 551 -97 793 -703 1430 -1485
1563 -156 27 -369 33 -505 16z m508 -958 c8 -8 12 -46 12 -105 l0 -93 323 0
c362 0 376 -2 409 -70 17 -32 18 -86 18 -675 0 -624 -1 -641 -20 -673 -40 -65
10 -63 -1066 -60 l-976 3 -34 37 -34 38 0 656 c0 600 1 658 17 685 34 57 49
59 407 59 l326 0 0 98 c0 54 3 102 7 105 3 4 140 7 303 7 217 0 299 -3 308
-12z"/>
<path d="M1550 2500 l0 -70 250 0 250 0 0 70 0 70 -250 0 -250 0 0 -70z"/>
<path d="M822 2348 c-18 -18 -15 -48 14 -118 100 -247 344 -425 679 -494 152
-31 155 -31 155 36 0 21 10 40 34 64 31 31 40 34 90 34 95 0 146 -43 146 -125
l0 -36 38 6 c187 31 286 61 412 124 188 94 332 248 390 417 24 69 24 69 4 88
-14 14 -117 16 -983 16 -739 0 -970 -3 -979 -12z"/>
<path d="M810 1682 l0 -442 995 0 995 0 -1 443 c0 346 -3 438 -12 423 -99
-159 -262 -291 -451 -366 -92 -37 -242 -77 -329 -87 l-62 -8 -5 -55 c-3 -31
-13 -68 -23 -84 -36 -54 -126 -72 -184 -36 -54 32 -63 54 -72 168 -1 7 -14 12
-32 12 -93 0 -321 65 -441 126 -138 70 -278 191 -347 299 l-31 49 0 -442z"/>
<path d="M1765 1798 c-32 -19 -35 -28 -35 -135 0 -90 3 -106 20 -123 26 -26
81 -26 103 -2 22 24 25 233 4 251 -22 17 -70 22 -92 9z"/>
<path d="M810 1112 c0 -40 5 -73 12 -80 9 -9 240 -12 978 -12 1109 0 1000 -11
1000 98 l0 62 -995 0 -995 0 0 -68z"/>
</g>
</svg>
